# xmcd CD database file
#
# Track frame offsets:
#	150
#	16637
#	28600
#	57459
#	71624
#	94190
#	109633
#	123085
#	154261
#	169105
#	184641
#
# Disc length: 3055 seconds
#
# Revision: 0
# Processed by: cddbd v1.5.1PL0 Copyright (c) Steve Scherf et al.
# Submitted via: CDex 1.51
#
DISCID=840bed0b
DTITLE=The Mofo Party Band - The Sound of The Mofo Party Band
DYEAR=2005
DGENRE=Blues
TTITLE0=Bad Trip
TTITLE1=One Fine Chick
TTITLE2=Traveling Man
TTITLE3=El Paso Boogaloo
TTITLE4=You're a Liar
TTITLE5=Blues and Trouble
TTITLE6=Country Girl
TTITLE7=One More Time
TTITLE8=Sunday Driver
TTITLE9=Horrible Mess
TTITLE10=The Sound
EXTD=YEAR: 2005
EXTT0=
EXTT1=
EXTT2=
EXTT3=
EXTT4=
EXTT5=
EXTT6=
EXTT7=
EXTT8=
EXTT9=
EXTT10=
PLAYORDER=
